<svg xmlns="http://www.w3.org/2000/svg" xml:space="preserve" viewBox="0 0 600 640">
	<g class="prefix__layer">
		<g class="prefix__layer">
			<path fill="#ababab" d="M104.55 277.93c6.52-8.47 13.36-16.8 19.17-25.4 6.29-9.3 7.63-23.07 2.39-33.82.74-9.77-6.07-11.7 4.65-4.86s15.8 18 12.97 32.79c-2.31 12.05-7.12 19.79-14.14 29.68-1.93 2.73-6.78 10.8-6.55 14.62 2.06.89 9.19 1.4 10.62.74 10.73-4.94 20.55-3.01 32.27-3.67 3.22-.18 10.16-8.95 11.75-11.17 11.35-15.95 22.35-26.54 40.34-35.14 13.69-9.23 20.64-6.62 23.23-11.33 7.74-14.09 16.45-23.2 31.95-27.59 38.63-26.55 38.46-34.9 40.87-42.08s-18.9-20.25-25.76-16.46c-9.37 5.19-12.71 6.71-23.31 2.47-15.04-13.3-9.7-15.41-2.05-19.78 50.66-19.42-16.87-9.54 52.82-23.18s89.16-14.05 103.65-10 99.84-11.77 112.2 2.21 48.73 46.59 50.4 48.13-8.97 1.71-11.8 4.08c-2.57 2.14-1.83 10.77-5.48 14.11s-22.02 42.68-19.32 52.6-4.13 55.89-9.98 64.26-3.86 22.37-2.12 30.47-13.33 37.81-33.51 43.34-27.59 2.47-40.16 3.3-11.38 4.29-13.46 8.21c-8.77 16.57-15.89 32.73-28.57 46.52-2.64 2.88-12.13 39.08-11.27 51.23s15.63 54.47 16.41 59.37c23.96 35.57 29.68 36.49 33.59 34.91 15.54-6.23 23.02-12.23 36.92-.62 5.65 4.72 6.19 8.29 10.11 11.56s5.58 21.63 5.47 28.3c-171.63 30.38-293.12 29.83-305.08 29.47s-135.04-6.34-162.33-15.1c-21.85-10.33-26.75-11.92-19.68-18.38 1.62-1.47 2.52-1.03 3.95-8.2s39.93-105.73 39.23-109.07c-4.78-22.87-1.39-42.57 9.3-62.97 2.06-29.67 9.74-54.83 18.04-70.4 3.95-7.42 3.42-9.55 8.24-16.69m190.96 161.93c-.93 3.33-4.81 24.67-3.79 28.22 6.91 42.82 9.27 43.9 9.27 44.23-.09 3.64 8.8 14.61 12.29 14.69 59.03.9 67.69-7.06 68.07-9.61 1.24-8.34-.64-16.85-3.89-25.42-7.95-20.99-16.92-46.39-22.37-68.31-14.66-1.62-19.69 1.68-24.21 3.27m-169.16 36.96c1.69-3.79 3.74-12.08 1.37-15.55-8.6-12.59-15.32-18.8-.01-27 1.4-.75 8.13-7.3 7.37-9.15-2.37-5.78-5.94-15.83-8.37-21.86-2.18 1.83-8.4-7.09-9.43-5.22-10 18.19-35.45 51.06-38.43 54.27s-11.41 22.98-14.31 30.42c-4.66 11.94-9.29 24-8.78 37.16.08 2.19-.03 16.67 15.23 21.79s58.8-2.24 58.56-4.35m73.83-15.94c-11.32-111.3-28.4-59.09-29.93-55.72-4.49 9.93-5.27 23.25-4.03 34.05.34 2.89 2.09 10.59 5.55 11.05m326.86-359.46"/>
			<path fill="#e5475c" stroke="null" stroke-dasharray="null" stroke-linecap="null" stroke-linejoin="null" stroke-opacity="null" stroke-width="null" d="m530 310.34 1.38 22.41L520 346.03l-28.62 5.69-32.41-47.59-13.45-3.1-9.31-15.52 16.55.69 12.41 3.1 11.03.86 11.03.86"/>
			<path fill="#5fbf00" stroke="null" stroke-dasharray="null" stroke-linecap="null" stroke-linejoin="null" stroke-opacity="null" stroke-width="null" d="m371.03 42.07 32.41-11.72 42.41-2.41 20.34 4.48 19.31 7.59 11.72 12.76 11.03 7.93 7.24 14.83s5.86 11.38 5.86 12.41 4.83 12.07 4.48 11.72c-.34-.34 0 6.9-.34 6.55-.34-.34-32.41 0-32.76-.34-.34-.34-23.1-3.45-23.45-3.79-.34-.34-17.59-5.52-17.93-5.86s-33.45 4.48-33.79 4.14-35.86 9.66-36.21 9.31c-.34-.34-1.03 12.41-1.38 12.07-.34-.34-6.55 5.86-6.9 5.52-.34-.34-5.52-4.48-5.52-5.17s-8.28-10-8.62-10.34-8.62-10-8.97-10.34c-.34-.34-5.52-1.72-5.86-2.07-.34-.34-10-1.72-10.34-2.07-.34-.34-5.86-2.41-6.21-2.76-.34-.34 21.72-34.48 21.38-34.83-.34-.34 22.07-17.59 22.07-17.59zm187.25 119.65 10-15.17-12.41-5.17-14.83-1.03-35.52.34-11.38 1.03-6.21 3.1-6.55.34-5.17-1.38-5.17.69-6.9-6.55-22.07-1.72-25.86-2.07h-21.03l-9.31 2.76-12.41 4.14-13.1 5.52-30 13.79s-5.86 3.1-6.21 3.1c-.34 0-5.86 4.14-6.21 3.79-.34-.34-3.45 13.1-3.79 12.76s-3.1 11.03-3.45 10.69c-.34-.34 1.38 10 1.03 9.66-.34-.34 1.38 5.86 1.03 5.52-.34-.34 5.52-6.9 5.17-7.24-.34-.34 5.52-3.79 5.17-4.14-.34-.34 4.14-5.17 4.48-5.86s1.03-9.31.69-9.66c-.34-.34 4.48-6.21 4.14-6.55s7.93-6.9 7.59-7.24 32.41-11.38 32.07-11.72 3.79 3.45 3.45 3.1c-.34-.34 5.86 15.17 5.52 14.83s5.52 10.69 5.17 10.34c-.34-.34 3.1 6.55 2.76 6.21s5.86 1.72 5.52 1.38.34-8.97 0-9.31-4.83-30-4.83-30.34 7.24-3.45 6.9-3.79 20.69-3.45 20.34-3.79c-.34-.34 20.69.69 20.34.34-.34-.34 21.72 2.76 21.38 2.41-.34-.34 4.14 5.52 3.79 5.17-.34-.34-2.07 10.34-2.41 10s-2.41 13.45-2.41 14.48-7.24 12.41-7.59 12.07c-.34-.34-7.24 6.9-7.24 8.28s-.69 6.55-1.03 6.21 5.86.34 5.52 0 6.21-5.86 5.86-6.21c-.34-.34 7.93-7.93 7.59-8.28-.34-.34 4.83-8.97 4.48-9.31-.34-.34 5.86-14.48 5.52-14.83-.34-.34 5.86-5.86 5.52-6.21-.34-.34 8.28.34 7.93 0-.34-.34 4.48 8.62 4.14 8.28s6.21 3.1 5.86 2.76c-.34-.34 4.48 3.45 4.14 3.1-.34-.34 1.03-17.24.69-17.59-.34-.34 11.72-4.14 11.38-4.48s13.79-2.07 13.45-2.41 12.07.34 11.72 0c-.34-.34 13.45 2.07 13.1 1.72-.34-.34 6.21 1.72 5.86 1.38-.34-.34 5.52 1.72 5.17 1.38"/>
			<path fill="#fff" stroke="#000" stroke-dasharray="null" stroke-linecap="null" stroke-linejoin="null" stroke-opacity="null" stroke-width="null" d="m382.83 269.78 3.91-11.52h3.48l3.7 5.65 1.09 6.96 2.39 3.04 3.48 6.96 4.35-5.87 2.61 1.74 2.61 4.57 1.96 6.74 2.61 3.7 1.3 1.3 1.96 1.3 2.17 2.39s4.78 2.83 4.78 3.04c0 .22 5.43-1.09 5.43-1.09s2.61 1.96 2.61 2.17c0 .22 4.13 4.57 4.13 4.57l2.61 2.61 3.04 2.61 4.35-2.39 1.74-5.43h3.7l3.91 5s1.52 5 1.52 5.22-3.91 4.35-3.91 4.35l-7.83-.22-9.13-1.96s-6.96-3.04-7.39-3.26-7.17-4.13-7.17-4.13l-9.35-4.57s-7.83-5.43-7.83-6.09c0-.65-2.83-9.57-2.83-9.57l-1.52-4.78s0 1.52-3.7 1.52-8.48-2.39-8.48-2.39l-5.65-8.04 3.04-5.65"/>
			<path fill="#f4f4f4" stroke="#fff" stroke-dasharray="null" stroke-linecap="null" stroke-linejoin="null" stroke-width="null" d="m528.91 307.17 3.26-4.57-3.91-7.39-6.52 3.26.87 5.22 5.87 4.13"/>
			<path fill="#fff" d="m258.13 605.31 4.69 5.31.63 7.19-6.56 2.19-5.31-5-1.25-5.63 1.88-3.44 2.81.31m41.23-1.86 4.69 5.31.63 7.19-6.56 2.19-5.31-5-1.25-5.63 1.88-3.44m30.02-1.53 3.65 4.46.49 6.03-5.12 1.83-4.14-4.19-.97-4.72 1.46-2.88 2.19.26M41.47 582.84l2.19 2.39.3 5.99-3.26 1.13-2.46-2.03-.8-7.07 2-1.42m25.57 3.91 3.85 4.88-1.74 5.86-3.14.23-2.38-3.26-.15-4.92m31.11-2.05.49 5.47-4 4.21-2.43-9.06M473 589.5l5.31 12.5-6.56 2.19-5.31-5 .63-9.06m21.95-4.95 1.76 7.98-3.34 2.03-4.36-9.39m19.35-9.41 3.62 4.32-1.99 5.05c-1.98-3.05-3.96-6.1-5.94-9.16"/>
			<path fill="#fc9494" d="M375.71 227.14 414 264.57l18.86 18.57 9.71 12.86 4.57 6.57-1.43 6-6.57-.86-4.29-7.71-6.86-1.71-9.14-4-4.29-4.29-4-11.14-12-6-6.57-13.71-3.14-2.86-5.14 12-5.71-3.43-6.29-16.29-2.29-17.14m138.72 34.14 10.29 31.14-23.71-4-2-12.57 9.14-10.29"/>
			<path d="M101.3 273.78c6.52-8.47 13.86-15.8 19.67-24.4 6.29-9.3 8.88-18.82 3.64-29.57-1.28-2.65-3.48-6.21-.48-8.77 3.22-2.75 6.66-.4 9.63 1.41 11.22 6.84 16.05 19.75 13.22 34.54-2.31 12.05-7.87 22.54-14.89 32.43-1.93 2.73-4.53 5.3-4.3 9.12 2.06.89 3.44-.35 4.87-1.01 10.73-4.94 22.05-7.51 33.77-8.17 3.22-.18 4.66-1.95 6.25-4.17 11.35-15.95 24.6-29.79 42.59-38.39 3.79-1.81 7.72-3.36 11.77-4.07 5.17-.91 8.37-3.3 10.96-8.01 7.74-14.09 19.7-23.2 35.2-27.59 2.16-.61 3.91-1.79 5.42-3.41 8.34-8.92 17.34-17.08 27.7-23.59 3.26-2.05 3.54-4.41 2-7.58-1.08-2.24-2.07-4.55-2.85-6.91-2.49-7.52-9.05-10.34-15.91-6.55-9.37 5.19-18.96 8.21-29.56 3.97-3.63-1.45-6.81-3.56-9.32-6.54-5.72-6.76-4.38-15.12 3.27-19.49 3.45-1.97 7.16-3.58 10.88-4.99 5.66-2.12 10.42-5.11 13.11-10.8 2.17-4.56 5.75-6.67 10.91-5.98 8.26 1.1 15.19-1.98 22.67-5.41 9.93-4.54 15.23-10.95 19.36-21.08 12.5-30.76 37.49-46.94 68.87-54.38 2.5-.59 4.61-1.29 6.49-3.25 6.68-6.97 21.74-8.85 29.71-3.4 3.26 2.22 6.59 3.08 10.22 3.36 42.74 3.3 74.55 28.88 86.95 71.46 1.06 3.62 2.8 5.44 6.33 6.66 18.28 6.32 34.15 16.43 47.07 30.97 2.9 3.26 5.44 6.77 7.05 10.84 2.51 6.34-1.39 11.74-8.19 11.87-3.27.06-6.83-2.5-9.66-.13-2.57 2.14-2.33 6.11-3.73 9.11-4.1 8.78-6.49 18.19-9.88 27.23-2.41 6.45-5.42 12.59-9.88 17.84-2.14 2.52-2.19 4.45-1.06 7.53 8.7 23.92 4.33 45.77-10.98 65.76-1.93 2.51-5.89 3.63-6.36 6.75-.5 3.39 3.74 4.68 5.32 7.38 3.19 5.49 3.31 11.21 1.17 16.84-1.46 3.86-2.4 7.62-1.74 11.65 2.73 16.95-16.84 36.41-35.77 34.44-5.29-.55-9.93.18-14.91 2.3-8.55 3.65-17.88 3.82-27.06 3.32-4.51-.24-6.82 1.47-8.9 5.39-8.77 16.57-19.64 31.73-32.32 45.52-2.64 2.88-3.19 6.08-3.77 9.48-4.76 28.16-2.42 55.71 6.98 82.69 1.63 4.71 3.15 9.53 3.93 14.43 1.05 6.59 4 11.7 8.98 16.06 3.49 3.05 6.65 6.57 9.56 10.19 2.67 3.32 5.14 3.49 9.05 1.91 15.54-6.23 30.77-7.23 44.67 4.38 5.65 4.72 9.78 10.6 11.86 17.56 1.17 3.9 3.32 5.24 6.89 6.01 8.3 1.81 16.58 3.88 24.18 7.78 4.85 2.48 10.51 4.84 10.4 11.51-.11 6.45-5.42 9.36-10.31 11.75-14.5 7.08-30.18 10.43-45.93 13.24-35.45 6.31-71.27 9.2-107.2 11.24-50.94 2.9-101.91 3.53-152.89 2.49-38.96-.79-77.89-2.59-116.66-6.8-28.3-3.06-56.63-6.04-83.92-14.8-5.88-1.89-11.73-3.86-16.82-7.5-7.78-5.58-8.18-11.42-1.11-17.88 1.62-1.47 2.15-3.11 2.45-5.2 1.04-7.13 2.67-14.12 7.57-19.77 1.85-2.14.91-4.84 1.82-7.13 5.83-14.72 5.82-31.46 15.51-44.87.72-.99.99-2.49 1.02-3.77.22-10.22 4.56-18.71 11.3-25.98 2.46-2.65 3.21-5.21 2.51-8.55-4.78-22.87-.39-44.32 10.3-64.72 1.46-2.79 1.93-5.56 1.88-8.62-.32-17.8 5.11-33.96 13.41-49.53 3.95-7.42 5.42-16.05 10.24-23.19.83-1.23-.05-2.55-.56-3.79-7.24-17.3-5.56-33.48 6.34-48.68m389.67-222.5c-2.2-1.52-4.4-3.03-7.07-5.08-12.3-8.17-25.92-12.06-41.62-13.01 5 5.91 9.48 10.98 12.92 16.81 3.55 6.03 7.04 12.12 8.52 19.04.8 3.75-1.1 7.58.76 11.58 1.93 4.16 2.93 8.82 3.89 13.36.76 3.59 2.52 4.35 5.97 4.06 11.94-.98 23.89-1.17 35.86.02 3.68.36 7.42 1.98 11.22.66.15-.67.39-1.15.34-1.62a10.7 10.7 0 0 0-.5-2.42c-3.61-10.8-8.38-21.06-15.48-30-4.01-5.05-8.48-9.79-14.81-13.4m-65.1 311.09c.3-.16.64-.26.89-.47 9.01-7.54 9.06-8.13-.2-15-2.54-1.88-4.4-4.63-8.51-4.41-19.78 1.1-38.62-2.96-56.87-10.64-45.52-19.18-73.99-72.18-65.69-122.53.84-5.05 2.49-10.08 2.16-16.48-12.49 10.74-21.53 22.98-30.57 35.31-.32-3.78 1.4-6.67 2.41-9.77.52-1.62 2.3-3.47.46-5.03-1.85-1.58-3.83-.1-5.52.85-6.43 3.58-11.45 8.74-14.87 15.15-15.57 29.21-20.74 60.1-14.55 92.76.43 2.28 2.08 4.48.41 7.02-8.59-23.1-12.67-46.85-9.57-71.74-21.61 17.36-28.41 41.93-34.24 67.03 1.69-29.74 12.93-55.28 34.12-77.14-5.51.13-9.06 2.82-12.55 5.12-30.82 20.31-45.52 51.42-56.5 85.14-1.47-11.77 1.76-22.85 4.28-35-13.92 5.1-23.07 14.9-33.18 23.55 5.23-12.53 14.69-21.64 24.09-30.94-9.17.43-16.81 4.16-23.36 10.03-7.61 6.81-13.55 15.1-19.55 23.31-4.24 5.82-8.16 11.82-9.93 18.91-3.41 13.58-3.48 27.36-1.99 41.18 1.11 10.39 4.38 20.54 3.45 31.16-.31 3.59-.74 7.16-5.56 9.72 1.42-20.89-3.99-40.32-3.91-61.44-1.16 1.5-1.41 1.73-1.54 2.01-.34.76-.66 1.53-.93 2.32-6.43 19.01-7.15 38.45-4.54 58.17 1.14 8.59 2.32 17.18.33 25.82-1 4.35-1.92 5.78-4.84 6.96 1.01-13.13.62-26.14-2.28-39.26-1.95 1.29-2.26 3.12-2.94 4.74-6.64 15.6-5.14 31.58-2.38 47.66 1.46 8.49 4.41 16.77 3.65 25.59-.23 2.62-.18 5.29-3.72 7.21-1.2-6.93-1.87-13.62-5.81-20.82-11.68 18.55-12.4 35.76.67 54.19-9.45-3.95-11.21-11.62-14.09-18.79-2.97 3.74-4.31 7.66-5.69 11.57-1.22 3.47.04 4.83 3.63 5.04 3.34.2 6.93.08 10.35 3.17-9.97 2.72-19.1 5.84-19.92 17.97 4.33 1.49 8.75-1.76 12.68 1.86-4.2 1.88-8.09 3.58-11.94 5.36-4.03 1.87-7.63 4.31-8.83 8.92-.96 3.68-3.94 7.45-.42 11.89 5.67-10.5 6.41-10.92 14.12-8.4L48.53 569c3.38 5.96 3.21 11.29 2.66 16.58-.76 7.27.05 8.31 7.7 8.74-.59-9.6.96-11.21 11.24-11.4.61-4.74-.09-9.31-2.47-13.43-3.1-5.36-8.84-1.46-13.36-3.1 1.92-2.28 4.36-3.07 6.46-2.94 5.25.35 9.56-1.86 14.15-3.73 2.9-1.17 4.32-2.7 4.5-5.74.27-4.48.62-8.96 1.07-13.42.82-8.14 4.18-15.65 6.31-23.05-1.04-1.75-3.1-.1-3.67-2.28 4.75-6.15 10.94-11.66 13.27-19.68-4.71-2.95-10.57-2.97-14.58-8 32.99-1.64 44.7-26.04 56.58-50.28-9.17 3.23-15.62 10.35-23.37 15.68 3.78-7.26 8.83-13.35 14.28-19.14 5.47-5.8 11.24-11.27 18.55-15.31-13.32-18.95-18.81-39.38-17.04-61.73 2.15 7.5 2.57 15.39 4.74 22.91 2.22 7.72 5.07 15.17 9.52 21.91q6.59 9.98 17.03 15.75c-7.97-18.26-15.6-36.36-16.46-56.68 6.1 29.35 18.57 54.26 47.25 69.62-8.61-10.14-15.26-20.2-20.65-31.1-9.07-18.33-12.79-29.07-10.94-34.44 3.46 10.09 7.15 19.28 12.39 27.73 5.31 8.58 11.28 16.55 20.31 23.46-15.7-25.39-25.93-53.33-22.7-63.93 3.74 10.89 6.31 21.07 11.96 29.87 5.67 8.83 12.52 16.53 21.59 22.41 2.23-6.75 2.29-6.79-.06-10.29-8.22-12.25-12.93-25.87-15.55-40.25-.5-2.73-1.28-5.67.34-9.64 6.35 15.19 9.15 30.83 19.46 43.9 3.72-7.62 5.45-15.16 9.14-21.86 3.57-6.49 6.72-13.3 13.23-18.62.69 3.37 3.29-4.96-1.24 6.89s-8.08 23.98-11.22 36.24c-5.08 19.87-4.9 39.25 5.51 57.61 4.11 7.25 8.45 14.36 12.58 21.59.92 1.62 2.55 3.14 1.66 5.59-4.04-1.59-5.8-5.95-10.83-8.26 3.93 16.33 7.25 31.77 9.85 47.36l1.68.85 13.92-13.48c-6.29 12-14.45 24.38-14.97 40.73 7.76-4.94 14.05-10.19 22.74-9.66-6.85 5.2-13.19 10.66-17.92 17.81-4.89 7.4-5.83 15.44-5.17 24.11 4.19-.15 7.04-2.08 10.18-3.05 5.55-1.72 6.31-1.83 9.73-.47-1.7 1.81-4.14 2.09-6.2 3.05-17.06 7.93-22.55 17.7-20.27 36.28.48 3.89 1.96 7.12 5.9 8.53 4.18 1.49 8.31 1.84 12.45-1.05-2.44-4.49-3.61-8.65-.26-12.86 3.38-4.24 7.71-3.45 12.31-2.07.1-5.85.48-11.67-3.85-15.41-5.82-5.02-11.85.1-18.02 1.45 2.67-4.49 7.2-6.84 13.03-7.04 8.56-.3 11.11 1.41 13.3 9.56 1.82 6.79 2.8 13.7 1.68 20.76-.99 6.19-.21 7.19 6.2 7.77 1.65.15 3.33.22 4.98.08 6.63-.55 7.98-2.46 6.4-8.86-1.62-6.56 2.74-11.36 9.36-10.37 1.29.19 2.44 1.2 4.16.54.24-5.92-2.02-11.25-4.67-16.41-6.34-12.36-14.62-14.65-26.65-7.64-1.58.92-2.89 2.81-5.99 2.08 5.83-9.82 15.11-12.53 25.37-13.94-3.21-10.33-10.23-15.82-19.28-19.53 7.5-.48 13.11 3.99 19.61 6.02-5.64-10.19-8.69-22.05-20.86-27.15 7.41-1.27 11.34 4.62 16.75 7.49 1.15-4.02.27-7.42-1.13-10.63-2.78-6.41-5.54-12.85-8.72-19.07-10.45-20.46-16.14-42.22-18.22-64.99-.11-1.24-1.08-3.07 1.74-3.63 5.04 23.33 11.17 46.24 24.6 67.06 18.01-32.61 14.35-64.11-.64-95.73 8.49 7.8 13.57 17.51 18.43 27.42 1.13-.5 1.83-.64 2.31-1.04 13.72-11.3 22.09-25.64 24.13-43.39 2.04-17.8-3.13-33.85-12.05-49.06-9.86-16.81-20-33.48-28.33-51.14-.76-1.6-2.43-3.19-1.34-5.28 1.33-.1 1.77.73 2.11 1.42 9.54 19.26 23.16 35.74 35.85 52.86 12.3 16.58 14.47 35.62 11.63 55.24-2.64 18.27-12.8 32.59-26.59 44.52-5.83 5.04-6.29 8.7-2.35 15.76 5.05-1.46 8.51-6.02 13.78-7.64.12 2.75-1.69 3.95-2.92 5.38-2.73 3.17-5.88 5.89-9.16 8.47-2.84 2.22-3.38 5.72-2.37 8.6 1.02 2.9 4.07 1.1 6.2.71 20.95-3.83 40.2-11.8 57.63-24.05 2.42-1.7 4.53-3.85 6.78-5.79-25.55 6.11-43.96 6.76-50.16.61 24.47 1.44 46.38-4.58 66.14-18.1 19.45-13.3 34.17-30.84 45.8-51.38-8.95 3.27-17.18 8.39-28.05 9.88 5.42-7.02 12.88-10.28 16.71-17.08 0 0 .06-.05.7-.23M335.95 173.9c-6.79 4.69-4.39 11.38-3.83 17.84-4.57 1.63-6.31 5.72-7.57 9.85-6.74 22.01-2.27 42.05 11.04 60.43.77 1.06 1.59 2.73 3.85 1.57-1.04-6.72-5.09-12.82-5.01-19.86 3.91 6.11 7.09 12.51 10.79 18.58 3.7 6.06 6.57 12.22 7.07 19.46.64 9.27 5.04 16.8 11.89 22.91 5.61 5.01 11.73 9.39 18.43 12.79 4.78 2.42 9.79 4.47 15.95 4.13l-12.53-16.8c2.28-.31 2.88.6 3.57 1.27 9.71 9.38 20.07 18.02 30.46 26.63 16.4 13.61 34.33 21.59 56.16 16.83 2.06-.45 4.37-.43 5.34-2.91-.69-2.63-3.22-3.87-4.33-6.07-1.98-3.92-4.99-5.72-9.46-6.11-7.46-.63-14.82-2.19-21.89-4.75-20.67-7.49-41.54-14.44-58.09-30.07-20.21-19.07-32.47-41.55-32-69.98.02-1.51.72-3.4-1.58-4.58-4.39 3.39-1.93 9.3-4.55 13.49-5.84-12.14 2.25-28.08 15.42-31.2 20.42-4.82 41.07 9.4 48.01 29.87.06.19-.3.53-.25.44-3.82-3.46-7.76-6.94-11.6-10.53-8.03-7.5-17.11-12.73-28.36-13.14-6.67-.25-8.79 1.55-9.51 8.13-2.11 19.29 2.54 37.16 12.81 53.33 16.53 26.03 40.71 42.18 69.74 51.31 7.72 2.43 15.93 2.89 24.62 2.41-.48-2.82-.69-5.03-2.51-6.51-2.88-.16-5.01 2.33-7.76 1.54-.08-2.27 2.97-1.97 2.65-4.8-27.96 2.95-48.49-11.49-68.61-29.48 3.81-.89 4.68 2.82 7.42 2.04-.05-2.37-.27-4.59-1.96-6.91-5.5 2.46-9.88.15-13.34-3.85-11.35-13.11-18.41-28.06-18.57-45.74-.03-3.53.21-7.13 3.85-9.14 3.93-2.17 7.45-.65 10.73 1.59 5.4 3.66 10.13 8.11 14.72 12.72 8.94 8.96 16.41 19.35 26.12 27.54 22.39 18.87 43.7 22.61 68.33 4.13 6.61-4.97 12.84-10.18 17.42-17.57-1.2 8.85 4.88 13.05 10.28 17.31 4.64 3.67 9.09 2.79 13.3-1.65 5.71-6.01 7.03-11.49 3.38-16.36 2.69-1.12 5.67-1.41 6.45-5.38 1.94-9.93 1.37-19.51-1.78-29.03-.3-.91-.71-1.91-2.14-1.72-.24.34-.67.7-.77 1.14-2.32 10.07-8.88 16.96-17.04 22.57-7.37 5.06-15.22 4.68-22-1.05-3.31-2.79-6.48-5.76-9.51-8.84-4.37-4.42-8.1-9.32-9.8-15.45-1.94-6.96.03-11.3 6.68-14.07 4.8-1.99 9.86-2.96 15.1-2.98 2.15 0 4.61.48 6.25-1.92-2.04-2.06-4.48-2.71-6.81-3.46-10.68-3.46-21.54-3.79-32.58-2.11-3.22.49-5.54 1.73-7.24 4.57-2.62 4.35-6.08 8.16-10.67 10.28-9.8 4.52-19.76 8.7-29.74 12.78-2.9 1.19-6.13 1.6-9.33 1.49-1.03-.04-2.4.41-3.04-1.88 6.06-1.16 12.1-2.38 18.22-5.84-1.85 0-2.83-.01-3.8 0-13.82.09-25.62-3.98-33.25-16.39-1.53-2.5-3.71-2.9-6.35-3.04-8.33-.44-16.44 1.09-24.65 2.43 7.24-6.18 16.36-6.86 25.73-8.55-3.75-9.45-6.36-18.69-8.98-27.94-.78-2.75-2.52-3.11-5.01-1.99-11.22 5.08-22.81 9.39-33.98 16.25m63.51 413.74c.02 2.47.64 4.9 2.95 5.96 9.53 4.37 19.49 6.76 30.05 5.39 3.38-.44 4.38-2.38 3.04-5.7-1.02-2.52-2.24-5.09-2.16-9.49 4.97 5.89 6.4 13.27 12.02 16.23 5.96 3.13 12.77 2.16 19.53-.67-3.27-7.33-1.81-12.67 6.23-15.27-5.41-9.39-11.93-16.14-23.13-16.9 6.07-3.07 11.28-.95 16.01 2.05 7.95 5.03 12.65 12.59 14.94 21.64.59 2.3 1.07 4.38 4.32 2.18-.74-2.75-3.69-4.47-3.16-7.67.63-3.83 4.27-2.84 6.83-4.16-5.23-8.51-11.35-15.6-19.49-20.82-2.4-1.53-4.88-1.82-7.61-.7-6.64 2.74-13.05 5.85-18.6 10.53-1.79 1.51-3.38 3.56-6.69 3.56 1.08-3.59 3.35-5.77 5.45-8 1.3-1.39 1.92-2.64.64-4.35-7.02-9.44-13-19.93-25-24.23 3.64-5.77-.77-9.53-3.31-13.61-1.11-1.77-2.73-3.3-5.14-3.64-2.4-.33-3.06 3.02-5.49 2.57-.87-2.27.31-3.76 1.57-5.04 2.87-2.91 6.42-1.08 10.14-.69-1.26-3.83-1.18-7.89-5.01-9.35-5.44-2.06-4.98 5.25-8.78 6.24-.52-7.08 1.59-10.24 9.05-13.31-4.22-15.76-7.63-31.76-8.03-49.29-5.06 6.87-9.22 13.04-14.27 18.54-6.88 7.5-13.93 12.7-18.74 12.51 10.78-9.04 18.75-19.49 23.69-32.13-8.54 8.45-16.67 17.29-26.22 24.51-4.47 3.38-5.38 6.49-3.2 11.67 6.72 15.95 12.97 32.1 19.41 48.17 2.77 6.92 4.18 13.94 2.4 21.45-.64 2.69-.53 5.66-.22 8.44.41 3.7 2.99 5.92 6.43 6.85 3.02.81 5.98.57 8.19-2.14 2.42-2.96 1.6-5.42-2.2-5.96-2.28-.32-4.65-.06-7.32-.06 2.26-3.41 5.91-2.76 8.58-4.16 4.25-2.23-.93-6.01 1.38-9.45 2.72 3.64 4.58 7.25 6.24 10.97 2.46 5.54 1.85 10.91-2.03 15.45-2.85 3.33-3.83 6.87-3.29 11.88m-69.86-110.9c-7.84 2.27-15.74 4.26-23.84 5.31-2.73.36-4.51 1.55-5.32 4.42-1.66 5.92-3.71 11.74-5.38 17.66-.93 3.33-2.39 6.71-1.37 10.26 2.07 7.26 3.74 14.47 1.9 22.1-2 8.32 6.79 13.35 6.76 21.14 0 .33.11.66.11.99-.09 3.64 1.8 4.86 5.29 4.94 19.64.46 39.27 1.06 58.91 1.6 1.87.05 3.78.09 4.16-2.46 1.24-8.34 2.61-16.35-.64-24.92-7.95-20.99-18.17-41.14-23.62-63.06-.67-2.72-2.4-3.29-4.93-2.31-3.73 1.44-7.51 2.74-12.03 4.33m-178.47 41.79c.89-3.72 1.28-7.65 2.81-11.08 1.69-3.79 1.49-6.58-.88-10.05-8.6-12.59-8.82-29.3 6.49-37.5 1.4-.75 2.38-1.8 1.62-3.65-2.37-5.78-4.69-11.58-7.12-17.61-2.18 1.83-2.9 3.91-3.93 5.78-10 18.19-20.7 35.81-38.43 47.77-1.14.77-1.78 1.89-2.32 3.16-3.13 7.35-6.59 14.57-9.49 22.01-4.66 11.94-9.04 24-8.53 37.16.08 2.19 8.25 13.79 10.23 14.29.62.16 1.32-.03 1.98-.08q24.65-1.72 49.3-3.45c1.48-.1 3.52.04 3.28-2.07-.7-6.28.92-12.84-1.2-18.83-2.88-8.15-4.33-16.36-3.81-25.85m211.6-373.95c1.22-.54 2.52-.94 3.64-1.63 13.43-8.22 28.33-10.46 43.66-10.19 11.64.2 23.31.28 34.92 1.54 1.96.21 4.06.54 5.58-1.3 3.55-4.32 8.1-7.61 12.82-12.04-8.12 3.17-14.47 7.77-21.47 11.2 6.5-8.7 15.24-14.63 25.14-21.28-7.57-.1-12.85 3.79-18.85 4.33 3.01-3.92 7.67-5.14 11.16-8.24-20.38 2.85-39.9 8.58-58.96 16.34 5.36 3.14 11.04 1.94 16.54 2.12 5.64.19 11.33-.67 18.11.31-3.79 2.81-7.12 2.3-10.11 2.56-9.59.83-19.25 2.23-28.75-.77-7.49-2.38-19.08 1.89-22.84 8.49-2.16-.88-3.11-2.9-4.39-4.61-5.38-7.2-10.68-14.47-16.18-21.59-3.49-4.54-8.22-6.44-14.02-6.18-7.7.36-14.74 2.6-21.14 6.79-7.72 5.04-15.8 8.6-25.32 7.33-2.63-.35-4.43.8-5.73 3.08-3.21 5.64-8.25 9.01-14.18 11.27-2.49.95-4.95 1.99-7.34 3.15-1.44.71-3.38 1.33-3.11 3.42.24 1.87 2.01 2.52 3.54 3.2 4.29 1.91 8.4 1.06 12.55-.67 13.31-5.53 25.53-12.94 37.23-21.29 4.93-3.51 10.37-6.05 16.35-7.19 10.81-2.05 23.99 8.47 23.75 18.06-2.65-2.38-5.72-5.12-8.79-7.88-4.99-4.5-10.42-6.05-16.99-3.38-6.91 2.81-12.91 6.87-18.42 11.76-1.82 1.61-4.43 2.83-4.23 5.76.1 1.44 1.67 2.2 3.02 2.12 3.25-.2 3.36-3.32 4.5-5.37 2.83-5.13 6.7-7.64 11.19-6.3 5.96 1.77 9.87 6.05 13.2 11.54-1.07.11-1.47.28-1.67.16-2.41-1.49-4.74-3.09-7.17-4.53-4.6-2.72-6.71-1.82-8.73 3.14-1.42 3.49.06 5.61 2.55 7.77 2.14 1.87 5.36 2.52 6.96 6-3.72-.04-6.05-2.08-8.69-3.26-3.16-1.43-5.33-.14-5.27 3.14.09 5.23 8.76 10.46 13.54 8.22 10.56-4.95 21.13-9.87 32.4-15.1M188.47 576.05c1.78.4 3.54 1.06 5.33 1.15 1.83.09 4.46.93 5.04-1.82.93-4.33 3.55-6.48 8.25-6.82-2.15-5.24-3.48-10.52-7.86-13.6-4.71-3.31-8.89 1.8-14.09 2.27 1.65-3.69 4.5-5.17 7.31-6.32 3.31-1.36 3.73-3.27 2.35-6.23-1.68-3.62-3.26-7.29-4.82-10.97-.47-1.12-1.67-2.1-.46-3.59 2.99-3.67 2.22-7.98 2.12-12.1-1.66-1.12-3.53.97-5.16-1.22 5.14-5.37 8.14-11.98 10.2-19.46-5.34-.95-10.44-.03-15.59-3.65 10.69-.9 19.92-3.03 29.91-7.56-15.07-4.43-27.25-11.68-38.37-21.04-3.42 5.61-3.47 11.47-5 17.2-2.29-1.81-1.54-3.61-1.82-5.16-.32-1.7.67-3.61-.74-5.16-6.47 3.53-7.87 7.06-5.23 14.06 2.78 7.32 8 12.98 13.22 18.62 1.91 2.07 4.46 3.79 5.11 7.66-4.59-1.29-7-4.78-10.72-6.91-2.9 4.93-4.44 9.92-4.86 15.53 3.57.38 5.77-3.14 9.71-1.32-4.71 3.61-8.65 7.32-8.35 13.93 3.12-3 5.59-6.31 10.89-5.83-2.72 2.84-5.6 4.72-6.47 8.16-2.54 10-2.63 20.12-.91 30.2.83 4.84 5.28 8.23 9.92 7.01 4.41-1.17 7.24.61 11.09 2.97m291.18-281.64c-.79 2.65 1.72 3.63 2.79 5.27 3.14 4.78 5.29 9.77 4.89 15.58-1.18-1.47-1.76-3.13-2.32-4.8-4.21-12.44-12.94-18.97-25.82-19.68-3.96-.22-7.86-1.33-11.82-1.79-2.94-.34-5.62-2.46-9.17-1.1 1.35 1.88 3.19 3.07 4.7 4.59 3.5 3.51 5.44 9.49 12.51 6.93 1.12-.41 3.07 1.04 4.47 1.9 4.62 2.84 8.23 6.72 11.05 11.35 3.14 5.15 5.32 10.74 7.6 16.28 3.44 8.38 9.47 13.34 18.48 15 12.71 2.35 25.08-3.5 28.99-14.05 3.57-9.6-2.23-21.32-13.7-27.51-5.88-3.17-12.08-5.61-18.41-7.72-1.83-.61-3.67-1.26-6.42.11 5.74 4.4 10.98 8.47 15.04 13.72 4.09 5.31 7.72 10.86 7.93 18.06-6.58-14.13-17-24.48-30.79-32.14m-19.86-119.85c-2.65 10.37-6.79 19.91-15.31 27.07 6-1.99 10.21-5.75 13.1-11.1 5.05-9.33 7.49-19.52 10.37-29.61 3.74-13.12 10.66-14.51 20.68-6.7 1.81 1.4 2.63 3.3 3.2 5.48.9 3.44 2.04 6.82 3.08 10.22.11-4.12-.57-8.05-.75-12-.32-7.2 1.3-9.33 8.34-10.63 15.32-2.82 30.67-3.68 46.14-.77 11.35 2.13 11.93 2.72 9.27 13.97-.02.1.36.29.73.57.85-3.19 2.61-5.8 4.2-8.52 1.5-2.59 2.34-5.88-2.07-6.44-17.65-2.28-35.29-5.75-53.17-2.98-5.64.87-12.31-.18-16.2 6.31-6.87-3.68-13.77-3.47-20.26.46-3.46-5.95-3.49-5.8-10.13-7.47-10.9-2.72-22.03-3.44-33.17-4.02-19.84-1.03-39.42-.22-57.88 8.45-14.32 6.73-28.7 13.33-43.07 19.97-2.34 1.08-4.18 2.66-5.53 4.87-4.63 7.6-6.49 15.98-6.82 24.76-.06 1.69-.28 3.61 1.76 5.09 2.14-3.32 2.94-7.23 5.8-9.55 3.25-2.63 3.96-5.81 3.76-9.68-.27-5.25 1.96-9.56 6.37-12.27 12.52-7.73 25.92-13.66 39.8-18.44 3.78-1.31 7.17-.72 7.76 4.49.28 2.45 1.22 4.83 1.93 7.22 3.01 10.14 5.84 20.35 12.82 28.77-5.03-10.96-7.97-22.42-9.2-34.4-.96-9.23-.07-11.46 8.95-13.35 21.8-4.55 43.63-4.61 65.34.89 6.02 1.52 6.93 2.72 5.55 8.75-1.53 6.65-3.4 13.22-5.39 20.59M362.78 60.68c-8.48 8.7-13.62 19.21-16.81 30.79-.74 2.71-1.2 5.14 2.25 6.59 9.92 4.17 15.78 12.4 21.04 21.26 1.32 2.22 1.72 6.77 5.17 5.51 3.56-1.3 1.34-5.27.83-7.99-4.97-27.06-1.84-52.36 15.76-74.64.39-.49.62-1.1 1.03-1.83-.75-.15-1.23-.37-1.67-.31-.81.12-1.69.25-2.39.65-5.83 3.34-13.45 3.64-16.7 11.41-1.35 3.23-5.28 5.39-8.51 8.56m31.82 187.97c-4.88-5.45-8.91-11.68-14.76-16.23-1.63-1.27-3.46-3.07-5.8-1.71-2.16 1.26-2.25 3.68-2.08 5.81.7 8.51 2.45 16.8 6.41 24.45.94 1.82 1.68 4.04 4.21 4.39 1.72-1.48 1.24-3.44 1.4-5.2.21-2.3-.15-5.06 2.71-5.83 2.9-.78 5.13.85 6.8 3.16 2.56 3.56 3.92 7.71 5.53 11.71.85 2.11 1.84 3.76 4.28 4.41 6.64 1.77 10.06 6.61 11.95 12.91 1.66 5.51 6.93 9.83 12.69 9.95 5.69.12 9.54 2.44 11.49 7.79 1.2 3.3 3.26 3.74 6.63 1.86-2.81-7-7.56-12.19-12.88-16.98-1.71-1.53-4.51-2.81-4.3-5.18.23-2.6-1-3.54-2.63-4.68-11.98-8.39-21.63-19.2-31.65-30.63m-77.95 10.97c3.14 4.83 5.87 9.97 10.4 13.84-7.05-10.29-13.22-20.96-16.69-33.05-4.79-16.67-6.08-32.4-2.17-36.99.17 15.74 2.05 30.68 8.32 44.73 6.27 14.02 14.52 26.59 26.92 36.82 1.11-4.8-.11-7.55-3.74-9.54-2.31-1.26-4.4-3.04-6.31-4.87-14.95-14.24-19.83-32.15-18.79-52.18.07-1.48.48-3.3-.19-4.4-5.42-8.82-4.75-18.5-4.39-28.17.05-1.11.4-2.37-.86-3.14-7.61 3.84-11.52 24.61-10.75 49.17 1.28 40.88 24.91 71.36 43.58 82.48-8.61-7.63-16.24-16.09-22.53-25.74-12.88-19.75-20.75-40.9-18.63-64.92.12-1.34-.43-3.14 2.29-3.53 1.84 13.81 6.21 26.79 13.54 39.49m-90.68 282.11c.55-3.09 2.11-6.42 1.46-9.23-2.06-8.96-1.97-18.16-3.68-27.12-1.5-7.87-.76-8.38-8.45-6.73-2.45.53-5.23-.47-6.76 2.9-4.49 9.93-6.27 20.25-5.03 31.05.34 2.89.59 6.84 4.05 7.3 6.23.83 11.83 2.78 17.01 7.07.57-2 .92-3.25 1.4-5.24m-90.86-321.5c-1.45-1.22-2.68-2.86-5.39-2.7.6 2.05 1.07 3.78 1.62 5.48 2.5 7.63 2.75 15.24.44 23.01-2.87 9.63-8.43 17.64-14.48 25.4-5.02 6.43-10.19 12.78-13.16 20.49-2.65 6.88-2.65 13.77.78 22.07 3.28-5.79 10.03-8.26 9.67-14.38-.72-12.47 4.41-22.08 12.04-31.17 6.12-7.3 11.07-15.47 13.39-24.83 2.03-8.19 1.93-16.2-4.91-23.37m373.44-99.26c-1.72-2.39-3.9-1.25-5.89-.65-7.83 2.37-15.32 5.58-22.5 9.49-4.03 2.19-8.54 3.64-12.53 7.89 4.72.04 4.36 6.98 10.65 4.85 6.02-2.03 1.97-7.26 4.51-10.27 2.28 2.1 2.3 4.69 2.89 7.04.74 2.92 1.84 4.81 5.05 2.29.64-.5 1.44-.92 2.23-1.09 4.56-1 4.26-3.56 2.7-7.06-1.02-2.28-3.09-4.3-2.66-7.95 3.65 2.63 4.76 6.18 6.45 9.3.96 1.77 1.74 3.74 4.29 3.45 3.9-.44 7.8-.94 12.24-1.49-1.34-6-4.13-10.64-7.43-15.8m-15.86 65.5c.76-.09 1.71.18 2.02-1.2-4.26-3.3-9.94-3.66-15.14-6.44 2.96-1.15 5.22-.45 7.43-.05 3.24.58 4.7-.74 3.54-3.78-1.7-4.49-3.07-9.16-5.87-13.16-2.56-3.65-10.17-3.44-11.62.73-2.58 7.42-4.27 15.14-6.63 23.83 9.15-1.45 17.37-1.15 26.27.07M312.61 602.65c2.62-4.24 6.74-3.24 10.65-2.67-.6-11.22-17.92-24.95-27.99-22.38 2.08 3.96 4.4 7.77 6.16 11.83 3.13 7.21 4.99 14.77 5.06 22.7.02 1.55.15 3.1 1.92 3.66 1.73.55 3.34-.06 4.6-1.21 1.33-1.21.25-2.46-.37-3.58-1.39-2.51-1.44-5.06-.03-8.35m128.81-447.3c1.72-2.51 4.11-4.63 5.13-8.02-2.96-.45-5.43-.7-7.84-1.21-4.18-.89-6.91.37-8.67 4.49-2.81 6.59-6.03 12.99-9.06 19.48-2.46 5.28-4.88 10.58-7.32 15.87l.86.46a27222 27222 0 0 0 26.9-31.07M84.91 568.16c-4.19-2.78-8.9-2.32-14.16-2.63 4.71 7.39 6.24 14.87 5.97 22.86-.21 6.13 1.09 6.91 7.39 4.99.09-8.4.62-9.13 8.89-11.77-.88-5.27-3.55-9.48-8.09-13.46m363.72-399.57c4.08-5.93 10.06-10.51 12.81-17.35-1.69-1.73-3.64-1.69-5.31-2.35-4.4-1.73-7.08-.63-8.63 4.16-1.63 5.05-3.93 9.89-6.06 14.77-2.81 6.42-5.74 12.78-8.62 19.17l.85.48a8140 8140 0 0 1 14.96-18.88m20.01-44.97c-5.52 3.17-11.23 6.06-16.03 10.68 4.42 2.75 7.61 2.18 11.28-.83 13.38-11.01 29.04-17.33 45.82-21.08 8.5-1.89 16.96-.79 25.43.38-7.81-1.58-15.54-3.02-23.63-2.4-15.09 1.16-28.8 6.46-42.87 13.25m42.15 164.01c-1.16-3.49-1.55-7 .02-10.47.78-1.72.31-3.49-1.29-3.59-3-.19-3.89-2.5-5.36-4.52-4.39 2.53-7.48 5.31-5.91 10.83.4 1.4.17 2.98.18 4.48.04 5.23 1.41 6.63 6.98 7.03-.48-3.86-4.08-6.27-5.13-10.58 7.1 2.79 7.07 10.87 12.6 15.07 2.79-6.03 1.62-10.98-.37-16.74-2.06 3.1-.82 5.69-1.72 8.49m40.5-126.38c1.64-2.4 3.98-4.43 4.19-7.54-2.04-1.59-4.26-1.55-6.34-2.02-1.98-.46-3.55-.52-4.38 1.81-3.51 9.83-7.09 19.64-11.09 30.7 6.29-8.18 11.74-15.28 17.62-22.95m-63.07 407.87c3.41 4.93 6.85 9.79 7.38 16.12.34 4.05 2.86 3.61 5.88 2.2-1.34-5.62-12.21-9.43-2.76-16.04-5.49-10.17-16.09-16.29-22.11-12.85 4.2 2.89 7.95 6.16 11.61 10.57m34.06-361.12c-.92-1.96-2.89-1.74-4.5-1.99-7.76-1.22-15.54-1.54-23.34-.13-3 .54-5.82 1.48-8.35 3.12-1.82 1.17-2.04 3.02-1.21 4.86.84 1.87 2.4 1.47 3.82.74 10.39-5.36 21.76-5.66 33.58-6.6m6.3-37.46c4.35-6.31 9.54-12.08 13.06-19.06-7.48-3-8.91-2.44-11.44 4.02-1.68 4.32-3.39 8.63-5.08 12.95-1.49 3.82-2.99 7.64-4.48 11.46l.91.43c2.19-3.08 4.39-6.15 7.03-9.8m-137.1 91.54c-.77-.94-.94-2.61-3.13-2.27-1.02 3.33-.93 7.17-2.9 10.31-1.52 2.41-.82 4.33.79 6.33 1.8 2.23 3.85 4.13 6.38 5.48 1.43.76 2.93 2 4.53.48 1.31-1.25.67-2.79.17-4.19a1210 1210 0 0 0-5.84-16.14M216.22 573.48c-.32-3.29-1.06-6.64 2.91-8.58 1.17-.56.88-2.02.58-3.18-1.65-6.26-8.44-9.84-15-7.56 4.08 5.62 7.07 11.63 7.97 18.54.22 1.73 1.64 1.85 3.54.78m359.62-436.91c-1.58-1.7-3.11-3.45-4.75-5.09-3.02-3-7.54-2.14-11.08-4.58-10.84-7.45-23.39-9.73-36.34-10.08.53.4 1.12.5 1.71.64 17.46 3.93 34.31 9.38 48.96 20.16.68.5 1.55.98 1.5-1.05M391.03 77.66c.08.15.12.34.24.43s.38.19.46.12c1.96-1.51 2.48-3.87 3.49-5.95 4.22-8.74 9.76-16.65 15.61-24.37-12.26 5.96-18.1 16.21-19.8 29.77m-93.72 539.25c.99-3.17.76-6.21-1.14-9.01-1.17-1.71-2.63-3.1-4.9-2.71-1.44.26-2.49 1.52-2.4 2.83.26 4.1 2.72 7.36 4.97 10.55 1 1.41 2.35.21 3.47-1.66m111.48-335.24c-2.34-2.5-3.7-1.61-4.19 1.35-.52 3.17.61 6.21 1.1 9.28.27 1.74 1.43 3.04 3.46 2.79 2.3-.28 2.8-1.92 2.75-3.95-.09-3.22-1.25-6.09-3.12-9.47M257.48 618.9c3.63-3.3 2.12-6.95.56-10.46-.79-1.77-2.39-3.09-4.43-2.05-2.01 1.03-3.62 2.92-2.46 5.29 1.35 2.77 2.57 5.82 6.33 7.22m199.3-306.98c.02-1.91-.65-3.6-1.73-5.11-.77-1.08-1.96-2.57-3.2-1.52-2.27 1.92-3.97 4.5-4.19 7.61-.11 1.65 1.04 2.83 2.69 3.12 2.94.53 5.29-.26 6.43-4.1M338.57 92.86c.23 1.55 1.06 2.47 2.68 2.24 1.19-.16 1.44-1.23 1.63-2.22 1.38-7.49 4.02-14.6 6.43-21.79-4.98 6.32-8.45 13.38-10.74 21.77m91.14 216.3c.83 2.21 2.68 2.9 4.71 2.62 1.4-.19 2.31-1.72 2.1-2.98-.61-3.67-1.33-7.47-6.35-8.29-1.1 2.71-.52 5.32-.46 8.65M318.34 612.9c1.05 1.14 1.39 3.13 3.65 3.02 1.95-2.16 1.23-4.67.51-6.96-.7-2.2-1.87-4.32-4.49-4.87-.91-.19-1.7.25-2.11.99-1.3 2.31.15 4.11 1.24 5.95.25.43.52.85 1.2 1.87m92.88-313.51c.41 2.83 3.08 3.12 4.92 4.33.85.56 1.9.81 2.82.21 1.2-.79.85-2.02.63-3.16-.9-4.85-2.67-5.25-8.37-1.38m57.25 296.28c1.58 1.56 1.78 4.37 4.59 5.1 2.5-2.8.74-5.33-.46-7.75-.73-1.47-1.89-3.31-3.74-2.62-2.33.88-1.54 2.93-.38 5.27m-429.59-3.64c3.8 2.01 3.55-1.27 3.85-3.2.29-1.82.61-4.51-2.15-4.56-2.35-.04-2.9 2.31-2.82 4.37.03.94.53 1.87 1.12 3.39m485.63-292.6c-1.99 3.97 1.07 5.02 3.48 6.61 2.15-1.86 2.33-4.02 1.3-5.99-.86-1.63-1.99-4.61-4.78-.62M67.66 589.65c-.92-1.89-2.52-4.07-4.26-1.83-2.28 2.94 0 5.56 2.12 7.89 2.2-1.44 2.34-3.35 2.14-6.06m421.99 4.18c.24-3.53-.56-6.41-4.93-7.67.07 3.95 1.19 6.68 4.93 7.67m13.05-15.99c-.78-.75-1.34-2.06-3.02-.93.14 3.59 3.49 5 5.38 8.65.1-3.47-1.04-5.29-2.36-7.72m-412.59 15.5c3.25-.76 1.92-3.04 1.5-4.87-.23-.99-1.25-1.76-2.25-1.13-1.83 1.14-.93 2.84-.49 4.35.13.45.49.84 1.24 1.65m350.23-281.61c-.56 2.95-.37 3.05 4.9 2.48.11-3.42-1.88-3.55-4.9-2.48m183.52 501.58"/>
			<path stroke="#000" d="M491.2 51.55c10.99 10.26 17.23 22.71 20.18 37.11-8.44-20.52-21.44-36.81-42.15-46.27 5.64-.55 9.78 2.54 14.77 4.2 2.57 1.64 4.77 3.16 7.2 4.96M259.52 258.32c1.21 9.87 1.04 19.51 2.36 29.09 2.89 21.04 9.6 41.03 15.98 61.12 2.17 6.82 4.34 13.62 5 20.79.15 1.63.59 3.26-1.2 4.64-7.37-28.42-21.07-54.82-23.5-84.34-.79-9.58-1.94-19.22-.37-28.85.16-1.01-.8-2.87 1.73-2.45M237.3 383.93c3.82-11.47 8.01-22.34 13.71-33.3 2.01 2.53 1.22 4.48.93 6.31-1.87 11.71-5.59 22.87-10.03 33.83-3.38 8.33-6.26 16.8-6.69 25.9-.04.8-.12 1.68-1.08 2.03l3.16-34.77m55.21-111.86c-3.04-8.83-5.65-17.35-5.23-26.75 7.51 27.34 19.36 52.28 40.09 73.54-9.25-2.75-26.83-27-34.86-46.79m132.63 90.54c-2.65-2.26-3.28-5.69-4.9-8.55-2.08-3.67-4.68-5.43-9.18-5.27-17.54.62-34.33-3.16-50.59-9.53-1.54-.61-3.02-1.39-4.52-2.1-.44-.21-.86-.46-1.83-1 3-1.54 4.85-.12 6.67.55 15.45 5.64 31.32 8.77 47.81 8.61 9.93-.1 16.28 6.15 16.71 16.82-.08.4-.14.45-.17.47m-16.4 7.03c-.96-3.37-3.59-4.06-6.17-4.74-8.86-2.34-17.26-5.84-25.4-9.99-1.52-.78-3.5-1.13-4.19-3.63 4.9.41 8.86 3.08 13.33 3.96 6.01 1.18 11.96 2.64 17.96 3.86 6.98 1.42 9.16 6.45 5.5 12.97-.94-.41-.82-1.32-1.03-2.43M242.81 485.22c.59-9.9-2.22-19.08-2.88-29.19 6.47 7.39 8.23 30.85 3.13 38.3-2.03-3.02-.22-5.9-.25-9.11m1.01 43.97c5.46-9.28 13.35-14.68 23.61-16.92-9.59 5.54-18.04 12.28-23.87 22.4-1.68-2.68-.36-3.84.26-5.48M73.48 524.1c-3.3 3.43-6.68 6.01-11.05 6.67l-.77-1.23 12-8.74c1.72 1.23.55 2.11-.18 3.3m-1.64 29.17c.7.65 1.1 1.13 2.48 2.83-7.03-1.93-12.72-4.44-19.66-1.91 3.62-4.5 8.81-4.52 17.18-.92m266.59-342.14c1.94-5.37 4.33-9.96 9.22-13.14-9.04 17.67-9.89 35.15.97 52.95-9.66-4.37-14.66-25-10.19-39.81m32.99 80.24c2.24 3.78 5.96 6.06 7.07 10.21-11.89-8.37-19.25-19.85-22.77-33.96 5.31 7.72 9.27 16.35 15.7 23.75M349.89 190.3c-4.79 1.88-8.1 5.48-12.47 8.13 1.83-8.52 17.58-16.82 26.89-13.92-5.13 2.04-9.61 3.82-14.42 5.79m106.33 153.51c-1.95-1.05-4.19-1.15-5.03-3.96l24.47 6.82-.34 1.51c-6.73 1.26-12.6-2.32-19.1-4.37m-15.61-82.84c-1.5 1.72-2.92 2.14-4.44.72-1.05-.99-1.4-2.21-.56-3.52.66-1.03 1.68-1.78 2.86-1.49 2 .48 3.1 1.74 2.14 4.29m24.82 5.62c1.02-2.81 2.69-3.91 4.99-2.08 1.56 1.25 1.36 3.11-.16 4.3-2.43 1.91-3.94.67-4.83-2.22m11.2-29.95c2.9-.07 4.23 1.17 3.33 3.66-.66 1.81-2.55 2.44-4.1 1.29-2.12-1.56-1.61-3.37.77-4.95m-20.9 29.34c.36 2.95-.87 4.23-3.4 3.6-1.62-.39-2.64-1.83-1.7-3.45 1.26-2.17 3.08-2.33 5.1-.15m-9.11-21.01c3.14-.59 3.97 1 3.55 3.33-.31 1.74-1.72 2.57-3.35 1.68-2.23-1.23-2.36-2.99-.2-5.01m16.54-7.35c2.42.73 3.63 2.02 2.13 4.06-1.19 1.6-3.05 1.55-4.22-.02-1.52-2.02-.37-3.33 2.09-4.04m-2.64 17.88c-2.13-2.19-1.59-3.83.69-4.75 1.51-.6 2.58.54 2.83 1.93.43 2.39-.91 3.26-3.51 2.82m15.33-4.03c2.49-1.36 3.89-.49 4.13 1.75.16 1.43-.98 2.62-2.49 2.45-2.4-.28-2.9-1.82-1.64-4.2m-85.95 246.32c-1.37-5.64-2.7-10.86-4.18-16.69 11.02 7.74 12.6 40.12 2.59 50.64 2.06-11.13 4.04-22.25 1.59-33.95m-39.4-357.1c-3.11-4.36-6.03-8.49-9.17-12.93 4.49 1.03 11.16 8.82 11.16 12.79 0 1.74-.97 1.24-1.99.14M180.69 546.2c1.25 2.27 2.57 4.17 1.81 8.26l-8.12-13.85c3.61.41 4.62 3.08 6.31 5.59M469.05 57.82c3.89 8.38 6.76 16.63 6.04 25.78-3.71-14.32-8.84-27.94-18.51-40.32 4.76 1.25 8 5.25 12.47 14.54M114.94 697.75"/>
		</g>
	</g>
</svg>
